<svg width="78" height="78" viewBox="0 0 78 78" fill="none" xmlns="http://www.w3.org/2000/svg">
<path fill-rule="evenodd" clip-rule="evenodd" d="M51.8697 30.3635L66.6759 23.5554L68.0682 26.5834L53.2614 33.3931L51.8697 30.3635Z" fill="white"/>
<path d="M75.4576 25.2427L60.6236 32.0636L56.4976 30.8568L56.0053 29.786L57.931 25.9652L72.6729 19.1866L75.4576 25.2427Z" fill="white"/>
<path fill-rule="evenodd" clip-rule="evenodd" d="M39.6415 21.1807C28.4185 17.0278 15.9551 22.7587 11.8022 33.9816C7.64931 45.2045 13.3802 57.668 24.6031 61.8209C35.8261 65.9737 48.2895 60.2429 52.4424 49.0199C56.5953 37.797 50.8644 25.3336 39.6415 21.1807ZM40.7983 18.0545C27.8497 13.2631 13.4675 19.8762 8.67604 32.8248C3.88459 45.7734 10.4977 60.1556 23.4463 64.947C36.3949 69.7385 50.7771 63.1253 55.5685 50.1767C60.36 37.2282 53.7468 22.846 40.7983 18.0545Z" fill="white"/>
<path d="M17.5 61C15.5 59 13.4842 59.0732 16.2968 57.3171C19.1093 55.561 22.677 54.3967 26.9999 53.8244V52.5366C25.6457 51.9382 24.4739 51.0927 23.4843 50C22.4947 48.9073 21.7134 47.626 21.1405 46.1561C20.5676 44.6862 20.1509 43.1122 19.8905 41.4341C19.6301 39.7561 19.4999 37.9415 19.4999 35.9902C19.4999 34.3252 19.8254 32.8423 20.4765 31.5415C21.1275 30.2407 22.0259 29.1935 23.1718 28.4C24.3176 27.6065 25.6327 27.0081 27.1171 26.6049C28.6015 26.2016 30.2291 26 31.9999 26C33.7707 26 35.3983 26.2016 36.8827 26.6049C38.3671 27.0081 39.6822 27.6065 40.828 28.4C41.9739 29.1935 42.8723 30.2407 43.5233 31.5415C44.1744 32.8423 44.4999 34.3252 44.4999 35.9902C44.4999 45.0959 41.9999 50.6374 36.9999 52.6146V53.8244C41.3228 54.3967 44.8905 55.561 47.703 57.3171C50.5 64 28 68.5 17.5 61Z" fill="white"/>
</svg>
