<svg width="37" height="54" viewBox="0 0 37 54" fill="none" xmlns="http://www.w3.org/2000/svg">
<path d="M5.84931 1.68649C4.55579 2.4333 3.42205 3.42759 2.51282 4.61259C1.60359 5.79758 0.93668 7.15007 0.550177 8.59282C0.163675 10.0356 0.0651478 11.5403 0.260222 13.0212C0.455296 14.502 0.940152 15.9299 1.6871 17.2233C3.0653 19.6106 5.26364 21.4161 7.87327 22.304C10.4829 23.1919 13.3262 23.1018 15.8744 22.0504L33.8003 53.099C33.9992 53.4435 34.3268 53.6949 34.7111 53.7979C35.0953 53.9008 35.5048 53.8469 35.8493 53.648C36.1938 53.4491 36.4452 53.1215 36.5482 52.7372C36.6512 52.3529 36.5973 51.9435 36.3983 51.599L18.4721 20.5499C20.6567 18.8689 22.1563 16.4517 22.6923 13.7478C23.2282 11.044 22.7639 8.23751 21.3857 5.85033C20.639 4.55674 19.6449 3.42289 18.46 2.51353C17.2751 1.60418 15.9226 0.937129 14.4799 0.550473C13.0372 0.163819 11.5325 0.0651333 10.0516 0.260051C8.57078 0.45497 7.14282 0.939674 5.84931 1.68649V1.68649ZM5.90322 7.57828C6.30903 7.34399 6.75701 7.19192 7.22158 7.13076C7.68615 7.06959 8.15823 7.10053 8.61084 7.22181C9.06346 7.34309 9.48776 7.55233 9.85951 7.83759C10.2313 8.12284 10.5432 8.47852 10.7775 8.88433C11.0118 9.29013 11.1638 9.73811 11.225 10.2027C11.2862 10.6673 11.2552 11.1393 11.1339 11.5919C11.0127 12.0446 10.8034 12.4689 10.5182 12.8406C10.2329 13.2124 9.87723 13.5243 9.47143 13.7586C8.65187 14.2318 7.67791 14.36 6.76381 14.115C5.84971 13.8701 5.07035 13.2721 4.59717 12.4525C4.124 11.633 3.99578 10.659 4.24071 9.74491C4.48564 8.83081 5.08367 8.05145 5.90322 7.57828Z" fill="#5ABC3A"/>
</svg>
